<svg xmlns="http://www.w3.org/2000/svg" width="120.879" height="17.422" viewBox="0 0 120.879 17.422">
  <path id="Caminho_1" data-name="Caminho 1" d="M1.836,0V-14H5.82a4.355,4.355,0,0,1,2.881.889A2.872,2.872,0,0,1,9.766-10.8a3.406,3.406,0,0,1-.645,2.07A3.476,3.476,0,0,1,7.344-7.48v.039A3.563,3.563,0,0,1,9.609-6.372a3.289,3.289,0,0,1,.85,2.349A3.661,3.661,0,0,1,9.17-1.113,4.8,4.8,0,0,1,5.918,0ZM3.477-12.52V-8h1.68a3.19,3.19,0,0,0,2.119-.649,2.261,2.261,0,0,0,.771-1.831q0-2.041-2.686-2.041Zm0,6v5.039H5.7a3.336,3.336,0,0,0,2.241-.684,2.342,2.342,0,0,0,.8-1.875q0-2.48-3.379-2.48ZM20.723,0H13.3V-14H20.41v1.484H14.941v4.658H20v1.475H14.941v4.9h5.781ZM34.707,0H32.7L25.488-11.162a4.664,4.664,0,0,1-.449-.879H24.98a14.417,14.417,0,0,1,.078,1.924V0H23.418V-14h2.129L32.559-3.018q.439.684.566.938h.039a14.816,14.816,0,0,1-.1-2.061V-14h1.641Zm9.15,0V-14h3.984a4.355,4.355,0,0,1,2.881.889A2.872,2.872,0,0,1,51.787-10.8a3.406,3.406,0,0,1-.645,2.07,3.476,3.476,0,0,1-1.777,1.25v.039a3.563,3.563,0,0,1,2.266,1.069,3.289,3.289,0,0,1,.85,2.349,3.661,3.661,0,0,1-1.289,2.91A4.8,4.8,0,0,1,47.939,0ZM45.5-12.52V-8h1.68A3.19,3.19,0,0,0,49.3-8.647a2.261,2.261,0,0,0,.771-1.831q0-2.041-2.686-2.041Zm0,6v5.039h2.227a3.336,3.336,0,0,0,2.241-.684,2.342,2.342,0,0,0,.8-1.875q0-2.48-3.379-2.48ZM60.967.234A6.147,6.147,0,0,1,56.2-1.729,7.28,7.28,0,0,1,54.4-6.836a7.714,7.714,0,0,1,1.826-5.391A6.378,6.378,0,0,1,61.2-14.238a6.009,6.009,0,0,1,4.673,1.953,7.307,7.307,0,0,1,1.772,5.107,7.739,7.739,0,0,1-1.816,5.42A6.26,6.26,0,0,1,60.967.234Zm.117-12.988A4.515,4.515,0,0,0,57.5-11.162a6.162,6.162,0,0,0-1.377,4.18,6.205,6.205,0,0,0,1.343,4.165,4.379,4.379,0,0,0,3.5,1.577,4.6,4.6,0,0,0,3.633-1.5,6.146,6.146,0,0,0,1.328-4.209,6.422,6.422,0,0,0-1.289-4.287A4.42,4.42,0,0,0,61.084-12.754Zm1.855-2.51a.937.937,0,0,1-.674-.273.923.923,0,0,1-.283-.693.927.927,0,0,1,.273-.684.9.9,0,0,1,.664-.273.951.951,0,0,1,.693.278.915.915,0,0,1,.283.679.948.948,0,0,1-.273.684A.911.911,0,0,1,62.939-15.264Zm-3.75,0a.951.951,0,0,1-.7-.288.929.929,0,0,1-.288-.679.919.919,0,0,1,.278-.684.932.932,0,0,1,.679-.273.973.973,0,0,1,.693.278.9.9,0,0,1,.293.679.931.931,0,0,1-.283.684A.92.92,0,0,1,59.189-15.264ZM80.928,0H79.287V-6.387H72.041V0H70.4V-14h1.641v6.143h7.246V-14h1.641ZM98.877,0H97.246V-9.395q0-1.113.137-2.725h-.039a8.711,8.711,0,0,1-.42,1.357L92.139,0h-.8L86.563-10.684a8.37,8.37,0,0,1-.42-1.436H86.1q.078.84.078,2.744V0H84.6V-14h2.168l4.3,9.766a12.5,12.5,0,0,1,.645,1.68h.059q.42-1.152.674-1.719L96.826-14h2.051Zm11.1,0h-7.422V-14h7.109v1.484H104.2v4.658h5.059v1.475H104.2v4.9h5.781Zm12.734,0h-1.953l-2.344-3.926a8.551,8.551,0,0,0-.625-.933,3.563,3.563,0,0,0-.62-.63,2.148,2.148,0,0,0-.684-.356,2.811,2.811,0,0,0-.825-.112h-1.348V0h-1.641V-14h4.18a5.957,5.957,0,0,1,1.694.229,3.791,3.791,0,0,1,1.348.7,3.245,3.245,0,0,1,.894,1.167,3.87,3.87,0,0,1,.322,1.636,3.939,3.939,0,0,1-.22,1.343,3.507,3.507,0,0,1-.625,1.089,3.789,3.789,0,0,1-.977.815,4.986,4.986,0,0,1-1.284.522v.039a2.954,2.954,0,0,1,.61.356,3.359,3.359,0,0,1,.493.474,6.273,6.273,0,0,1,.464.62q.229.347.513.806Zm-8.4-12.52v5.078h2.227a3.377,3.377,0,0,0,1.138-.186,2.634,2.634,0,0,0,.9-.532,2.414,2.414,0,0,0,.6-.85,2.844,2.844,0,0,0,.215-1.128,2.2,2.2,0,0,0-.728-1.753,3.125,3.125,0,0,0-2.1-.63Z" transform="translate(-1.836 17.188)" fill="#fff"/>
</svg>
